<svg xmlns="http://www.w3.org/2000/svg" xmlns:xlink="http://www.w3.org/1999/xlink" width="500" zoomAndPan="magnify" viewBox="0 0 375 374.999991" height="500" preserveAspectRatio="xMidYMid meet" version="1.0"><defs><clipPath id="1661e575e5"><path d="M 114.324219 57.253906 L 260.65625 57.253906 L 260.65625 317.765625 L 114.324219 317.765625 Z M 114.324219 57.253906 " clip-rule="nonzero"/></clipPath><clipPath id="389fc26be1"><path d="M 169.730469 265 L 205.203125 265 L 205.203125 353.980469 L 169.730469 353.980469 Z M 169.730469 265 " clip-rule="nonzero"/></clipPath><clipPath id="bc2be972a4"><path d="M 169.789062 21.015625 L 205.265625 21.015625 L 205.265625 110 L 169.789062 110 Z M 169.789062 21.015625 " clip-rule="nonzero"/></clipPath></defs><g clip-path="url(#1661e575e5)"><path fill="#ffd700" d="M 257.242188 115.609375 C 256.945312 115.414062 256.625 115.28125 256.277344 115.214844 C 255.929688 115.148438 255.582031 115.152344 255.234375 115.226562 C 254.890625 115.300781 254.570312 115.4375 254.28125 115.640625 C 253.988281 115.839844 253.75 116.09375 253.5625 116.390625 C 249.523438 121.726562 245.472656 126.917969 241.523438 132.238281 C 236.742188 138.640625 232.082031 145.128906 227.300781 151.53125 C 221.59375 159.199219 215.8125 166.792969 210.089844 174.4375 C 203.511719 183.171875 143.894531 261.757812 131.464844 277.710938 L 127.800781 283.808594 C 125.84375 286.9375 124.421875 290.292969 123.542969 293.878906 C 122.660156 297.464844 122.363281 301.097656 122.644531 304.777344 C 122.707031 305.800781 122.875 306.804688 123.148438 307.792969 C 123.421875 308.777344 123.796875 309.726562 124.269531 310.632812 C 124.742188 311.542969 125.304688 312.390625 125.957031 313.183594 C 126.609375 313.972656 127.335938 314.6875 128.140625 315.320312 C 128.820312 315.886719 129.566406 316.351562 130.371094 316.710938 C 131.179688 317.070312 132.019531 317.316406 132.894531 317.445312 C 133.769531 317.574219 134.648438 317.582031 135.523438 317.46875 C 136.402344 317.355469 137.246094 317.125 138.0625 316.78125 C 143.769531 313.898438 145.171875 305.613281 141.902344 300.953125 C 140.273438 298.777344 138.496094 296.734375 136.566406 294.816406 C 134.789062 293.039062 133.4375 291.046875 133.8125 288.378906 C 133.988281 287.503906 134.226562 286.644531 134.523438 285.800781 L 137.902344 281.605469 C 139.285156 280.316406 140.835938 279.285156 142.554688 278.503906 C 144.273438 277.71875 146.070312 277.230469 147.949219 277.035156 C 153.804688 276.253906 159.613281 276.53125 165.371094 277.871094 C 169.503906 278.761719 173.574219 279.875 177.585938 281.210938 C 183.242188 282.992188 188.824219 285.144531 194.40625 287.222656 C 197.660156 288.433594 200.859375 289.800781 204.0625 291.117188 C 204.214844 291.199219 204.378906 291.25 204.550781 291.265625 C 204.722656 291.285156 204.894531 291.269531 205.058594 291.21875 C 205.226562 291.167969 205.378906 291.089844 205.511719 290.980469 C 205.648438 290.871094 205.757812 290.738281 205.839844 290.585938 C 207.191406 288.804688 208.71875 287.1875 210.175781 285.515625 C 214.667969 280.488281 219.75 276.148438 225.421875 272.5 C 231.089844 268.855469 237.148438 266.03125 243.585938 264.035156 C 245.84375 263.285156 248.050781 262.449219 250.289062 261.648438 L 250.289062 200.261719 L 213.894531 180.910156 C 214.265625 180.359375 214.480469 179.988281 214.746094 179.632812 C 220.667969 171.824219 226.535156 163.980469 232.527344 156.210938 C 238.519531 148.4375 244.386719 140.863281 250.484375 133.304688 C 253.152344 129.996094 256.28125 127.027344 259.109375 123.84375 C 259.261719 123.695312 259.402344 123.539062 259.535156 123.375 C 259.667969 123.210938 259.789062 123.039062 259.902344 122.859375 C 260.011719 122.675781 260.109375 122.492188 260.195312 122.296875 C 260.28125 122.105469 260.355469 121.90625 260.417969 121.703125 C 260.476562 121.5 260.523438 121.296875 260.558594 121.085938 C 260.59375 120.878906 260.613281 120.667969 260.621094 120.457031 C 260.628906 120.246094 260.621094 120.035156 260.601562 119.824219 C 260.582031 119.613281 260.550781 119.40625 260.503906 119.199219 C 260.457031 118.992188 260.394531 118.789062 260.324219 118.589844 C 260.25 118.390625 260.164062 118.199219 260.066406 118.011719 C 259.96875 117.824219 259.859375 117.644531 259.738281 117.46875 C 259.617188 117.296875 259.484375 117.128906 259.34375 116.972656 C 259.203125 116.816406 259.050781 116.671875 258.886719 116.535156 C 258.726562 116.398438 258.558594 116.269531 258.378906 116.15625 C 258.203125 116.039062 258.019531 115.9375 257.828125 115.84375 C 257.636719 115.753906 257.441406 115.675781 257.242188 115.609375 Z M 215.671875 218.398438 C 216.316406 218.863281 216.660156 219.492188 216.703125 220.285156 C 216.792969 225.035156 216.703125 229.78125 216.703125 234.511719 C 216.703125 244.257812 216.703125 254.003906 216.703125 263.75 L 216.703125 265.742188 C 198.78125 253.023438 179.632812 248.722656 158.542969 255.070312 L 158.417969 254.644531 C 159.558594 253.113281 160.660156 251.585938 161.816406 250.074219 L 184.804688 219.839844 C 187.773438 215.945312 190.796875 212.085938 193.695312 208.136719 C 194.28125 207.339844 194.707031 207.390625 195.472656 207.765625 C 202.140625 211.25 208.914062 214.773438 215.671875 218.398438 Z M 147.574219 223.734375 C 149.691406 220.871094 151.894531 218.097656 154.027344 215.253906 C 164.554688 201.238281 226.589844 119.21875 236.707031 106.289062 L 238.074219 104.511719 C 238.449219 104.085938 238.714844 103.855469 238.910156 103.585938 C 241.503906 99.851562 244.242188 96.1875 246.660156 92.347656 C 248.800781 89.152344 250.359375 85.695312 251.339844 81.980469 C 252.320312 78.261719 252.671875 74.484375 252.386719 70.652344 C 252.34375 69.625 252.195312 68.613281 251.9375 67.617188 C 251.679688 66.621094 251.320312 65.664062 250.859375 64.746094 C 250.402344 63.824219 249.851562 62.964844 249.207031 62.160156 C 248.566406 61.359375 247.847656 60.632812 247.054688 59.980469 C 246.425781 59.378906 245.726562 58.878906 244.953125 58.480469 C 244.179688 58.085938 243.363281 57.808594 242.511719 57.648438 C 241.65625 57.492188 240.796875 57.460938 239.933594 57.554688 C 239.066406 57.648438 238.234375 57.863281 237.433594 58.203125 C 231.867188 60.691406 230.320312 67.09375 232.101562 72.429688 C 233.289062 75.328125 235.109375 77.753906 237.558594 79.703125 C 242.128906 83.6875 242.324219 87.953125 238.289062 92.472656 C 236.839844 94.03125 235.171875 95.300781 233.28125 96.28125 C 231.390625 97.261719 229.390625 97.894531 227.28125 98.179688 C 221.375 99.042969 215.511719 98.796875 209.699219 97.433594 C 205.5625 96.554688 201.488281 95.441406 197.484375 94.089844 C 191.738281 92.207031 186.066406 90.089844 180.394531 87.972656 C 177.230469 86.800781 174.136719 85.464844 171.007812 84.183594 C 170.832031 84.078125 170.640625 84.011719 170.433594 83.984375 C 170.230469 83.957031 170.027344 83.972656 169.828125 84.03125 C 169.628906 84.089844 169.449219 84.183594 169.289062 84.316406 C 169.128906 84.445312 169.003906 84.605469 168.910156 84.789062 C 167.738281 86.425781 166.3125 87.902344 165 89.429688 C 160.472656 94.546875 155.34375 98.953125 149.605469 102.65625 C 143.871094 106.359375 137.738281 109.21875 131.214844 111.234375 C 128.976562 111.980469 126.753906 112.816406 124.476562 113.617188 L 124.476562 115.394531 C 124.476562 134.15625 124.476562 152.902344 124.476562 171.664062 C 124.476562 174.066406 124.90625 175.503906 127.269531 176.589844 C 128.746094 177.265625 130.203125 177.996094 131.644531 178.757812 L 141.421875 183.953125 L 141.421875 184.128906 L 142.078125 184.308594 L 148.105469 187.367188 C 149.066406 187.9375 150.082031 188.417969 151.078125 188.914062 L 161.035156 194.25 C 160.714844 194.765625 160.5 195.136719 160.25 195.476562 C 156.445312 200.445312 152.640625 205.417969 148.835938 210.398438 C 141.476562 219.910156 134.203125 229.566406 126.769531 239.027344 C 123.394531 243.296875 119.535156 247.191406 115.90625 251.28125 C 115.753906 251.425781 115.613281 251.582031 115.480469 251.746094 C 115.34375 251.910156 115.222656 252.082031 115.113281 252.261719 C 115 252.441406 114.902344 252.625 114.8125 252.816406 C 114.726562 253.011719 114.652344 253.207031 114.589844 253.410156 C 114.527344 253.609375 114.480469 253.816406 114.441406 254.023438 C 114.40625 254.230469 114.382812 254.441406 114.375 254.652344 C 114.367188 254.863281 114.371094 255.070312 114.386719 255.28125 C 114.40625 255.492188 114.4375 255.699219 114.480469 255.90625 C 114.527344 256.113281 114.582031 256.316406 114.652344 256.515625 C 114.722656 256.714844 114.804688 256.90625 114.902344 257.097656 C 114.996094 257.285156 115.105469 257.464844 115.222656 257.640625 C 115.339844 257.816406 115.46875 257.980469 115.609375 258.140625 C 115.75 258.296875 115.898438 258.445312 116.058594 258.585938 C 116.214844 258.722656 116.382812 258.851562 116.558594 258.96875 C 116.734375 259.089844 116.914062 259.195312 117.105469 259.289062 C 117.292969 259.382812 117.488281 259.464844 117.6875 259.535156 C 117.988281 259.722656 118.320312 259.847656 118.671875 259.910156 C 119.027344 259.96875 119.378906 259.960938 119.726562 259.886719 C 120.078125 259.808594 120.402344 259.671875 120.695312 259.46875 C 120.992188 259.265625 121.238281 259.015625 121.4375 258.714844 C 125.457031 253.378906 129.472656 248.171875 133.421875 242.851562 C 138.203125 236.503906 142.773438 230.101562 147.519531 223.753906 Z M 158.773438 163.519531 Z M 159.46875 156.8125 C 158.839844 156.4375 158.464844 155.886719 158.347656 155.160156 C 158.347656 140.257812 158.347656 125.359375 158.347656 110.46875 C 158.378906 110.148438 158.425781 109.828125 158.492188 109.507812 C 176.269531 122.136719 195.421875 126.4375 216.507812 120.179688 L 216.613281 120.625 C 215.28125 122.402344 213.945312 124.179688 212.59375 126.046875 C 206.015625 134.726562 199.433594 143.394531 192.84375 152.046875 C 189 157.046875 185.054688 162.078125 181.265625 167.148438 C 181.199219 167.292969 181.105469 167.417969 180.980469 167.519531 C 180.859375 167.621094 180.71875 167.691406 180.5625 167.730469 C 180.40625 167.769531 180.25 167.769531 180.09375 167.738281 C 179.933594 167.703125 179.792969 167.636719 179.667969 167.539062 C 176.109375 165.636719 172.554688 163.730469 168.890625 161.902344 C 168.691406 161.816406 168.484375 161.78125 168.269531 161.792969 L 166.261719 160.601562 C 166.046875 160.265625 165.566406 160.140625 165.246094 159.960938 C 163.328125 158.824219 161.335938 157.917969 159.449219 156.8125 Z M 159.46875 156.8125 " fill-opacity="1" fill-rule="nonzero"/></g><g clip-path="url(#389fc26be1)"><path fill="#ffd700" d="M 189.792969 306.824219 C 191.019531 311.949219 194.601562 314.867188 199.792969 316.558594 C 193.894531 319.757812 192.582031 325.453125 191.625 331.066406 C 190.667969 336.675781 190.414062 342.777344 189.84375 348.640625 C 189.640625 350.515625 190.769531 353.496094 187.644531 353.496094 C 184.164062 353.496094 185.355469 350.429688 185.289062 348.472656 C 184.972656 340.398438 184.484375 332.339844 181.761719 324.648438 C 180.585938 321.296875 179.324219 317.949219 174.820312 316.691406 C 180.132812 314.597656 184.25 312.117188 185.289062 306.789062 L 184.652344 306.105469 C 183.863281 306.707031 182.972656 307.292969 182.25 307.929688 C 181.632812 308.464844 180.964844 308.921875 180.242188 309.296875 C 179.515625 309.671875 178.757812 309.957031 177.96875 310.152344 C 177.175781 310.347656 176.371094 310.445312 175.554688 310.449219 C 174.738281 310.453125 173.933594 310.363281 173.140625 310.175781 C 172.648438 310.105469 172.1875 309.949219 171.753906 309.703125 C 171.320312 309.460938 170.949219 309.144531 170.636719 308.757812 C 170.324219 308.375 170.09375 307.945312 169.945312 307.472656 C 169.796875 306.996094 169.742188 306.515625 169.78125 306.019531 C 169.769531 305.570312 169.839844 305.132812 170 304.710938 C 170.15625 304.285156 170.390625 303.910156 170.695312 303.578125 C 171 303.242188 171.359375 302.980469 171.765625 302.785156 C 172.175781 302.589844 172.605469 302.480469 173.054688 302.453125 C 174.78125 302.042969 176.527344 301.808594 178.300781 301.746094 C 178.644531 301.78125 178.992188 301.785156 179.339844 301.757812 C 179.6875 301.726562 180.027344 301.667969 180.363281 301.574219 C 180.699219 301.480469 181.023438 301.359375 181.335938 301.207031 C 181.648438 301.054688 181.945312 300.875 182.222656 300.667969 C 182.503906 300.460938 182.761719 300.226562 182.996094 299.972656 C 183.234375 299.71875 183.441406 299.441406 183.628906 299.148438 C 183.8125 298.851562 183.96875 298.542969 184.09375 298.222656 C 184.222656 297.898438 184.316406 297.566406 184.382812 297.226562 C 186.367188 287.542969 188.011719 277.808594 178.753906 270.421875 C 178.59375 270.257812 178.464844 270.074219 178.367188 269.867188 C 181.105469 268.308594 183.792969 266.734375 186.550781 265.292969 C 187.25 265.023438 187.941406 265.050781 188.617188 265.378906 C 191.273438 266.851562 193.894531 268.34375 196.566406 269.734375 C 194.914062 271.398438 193.40625 273.183594 192.046875 275.09375 C 187.355469 282.632812 188.683594 290.539062 191.1875 298.347656 C 191.378906 298.855469 191.644531 299.320312 191.984375 299.746094 C 192.320312 300.167969 192.714844 300.53125 193.167969 300.832031 C 193.621094 301.132812 194.109375 301.355469 194.628906 301.503906 C 195.152344 301.652344 195.6875 301.714844 196.230469 301.699219 C 198.285156 301.84375 200.320312 302.136719 202.328125 302.585938 C 204.261719 303.089844 205.589844 304.480469 205.101562 306.269531 C 204.882812 307.03125 204.527344 307.722656 204.03125 308.339844 C 203.535156 308.957031 202.941406 309.457031 202.246094 309.839844 C 201.5 310.183594 200.722656 310.414062 199.90625 310.527344 C 199.09375 310.640625 198.28125 310.632812 197.472656 310.503906 C 196.660156 310.375 195.886719 310.132812 195.148438 309.773438 C 194.410156 309.414062 193.738281 308.957031 193.136719 308.398438 L 190.484375 306.203125 Z M 189.792969 306.824219 " fill-opacity="1" fill-rule="nonzero"/></g><g clip-path="url(#bc2be972a4)"><path fill="#ffd700" d="M 185.199219 68.171875 C 183.972656 63.046875 180.394531 60.132812 175.199219 58.441406 C 181.097656 55.238281 182.410156 49.542969 183.367188 43.933594 C 184.324219 38.320312 184.578125 32.222656 185.148438 26.359375 C 185.351562 24.480469 184.226562 21.5 187.351562 21.5 C 190.828125 21.5 189.636719 24.566406 189.703125 26.527344 C 190.023438 34.601562 190.507812 42.660156 193.230469 50.347656 C 194.40625 53.699219 195.667969 57.050781 200.171875 58.304688 C 194.863281 60.398438 190.746094 62.878906 189.703125 68.207031 L 190.339844 68.894531 C 191.132812 68.289062 192.023438 67.703125 192.746094 67.066406 C 193.359375 66.53125 194.027344 66.078125 194.753906 65.703125 C 195.476562 65.324219 196.234375 65.039062 197.027344 64.84375 C 197.816406 64.648438 198.621094 64.550781 199.4375 64.546875 C 200.253906 64.542969 201.058594 64.636719 201.851562 64.824219 C 202.34375 64.890625 202.808594 65.046875 203.238281 65.292969 C 203.671875 65.535156 204.042969 65.851562 204.355469 66.238281 C 204.667969 66.625 204.898438 67.054688 205.046875 67.527344 C 205.195312 68 205.25 68.484375 205.214844 68.976562 C 205.226562 69.429688 205.152344 69.867188 204.992188 70.289062 C 204.835938 70.710938 204.601562 71.089844 204.296875 71.421875 C 203.992188 71.753906 203.636719 72.015625 203.226562 72.210938 C 202.816406 72.40625 202.386719 72.519531 201.9375 72.546875 C 200.210938 72.953125 198.464844 73.1875 196.695312 73.25 C 196.347656 73.214844 196 73.210938 195.652344 73.242188 C 195.304688 73.269531 194.964844 73.332031 194.628906 73.421875 C 194.292969 73.515625 193.96875 73.636719 193.65625 73.789062 C 193.34375 73.941406 193.046875 74.125 192.769531 74.332031 C 192.488281 74.539062 192.230469 74.769531 191.996094 75.023438 C 191.761719 75.28125 191.550781 75.554688 191.367188 75.851562 C 191.179688 76.144531 191.023438 76.453125 190.898438 76.777344 C 190.769531 77.097656 190.675781 77.429688 190.609375 77.773438 C 188.628906 87.457031 186.980469 97.1875 196.238281 104.578125 C 196.398438 104.742188 196.527344 104.925781 196.625 105.128906 C 193.886719 106.6875 191.199219 108.261719 188.441406 109.703125 C 187.742188 109.972656 187.050781 109.945312 186.375 109.621094 C 183.71875 108.144531 181.097656 106.65625 178.425781 105.265625 C 180.078125 103.597656 181.585938 101.8125 182.949219 99.902344 C 187.636719 92.363281 186.308594 84.457031 183.804688 76.648438 C 183.613281 76.144531 183.347656 75.675781 183.011719 75.253906 C 182.671875 74.828125 182.277344 74.464844 181.824219 74.164062 C 181.371094 73.867188 180.886719 73.640625 180.363281 73.492188 C 179.839844 73.34375 179.304688 73.28125 178.761719 73.300781 C 176.707031 73.15625 174.675781 72.859375 172.664062 72.410156 C 170.730469 71.910156 169.402344 70.519531 169.890625 68.726562 C 170.109375 67.964844 170.464844 67.277344 170.960938 66.65625 C 171.457031 66.039062 172.050781 65.539062 172.746094 65.15625 C 173.492188 64.8125 174.273438 64.585938 175.085938 64.472656 C 175.898438 64.359375 176.710938 64.367188 177.523438 64.496094 C 178.332031 64.621094 179.105469 64.867188 179.847656 65.226562 C 180.585938 65.582031 181.253906 66.042969 181.855469 66.597656 L 184.511719 68.792969 Z M 185.199219 68.171875 " fill-opacity="1" fill-rule="nonzero"/></g></svg>